<?xml version="1.0" encoding="UTF-8" standalone="no"?>
<!DOCTYPE svg PUBLIC "-//W3C//DTD SVG 1.0//EN" "http://www.w3.org/TR/2001/PR-SVG-20010719/DTD/svg10.dtd">
<svg width="34cm" height="48cm" viewBox="-20 -20 680 960" xmlns="http://www.w3.org/2000/svg" xmlns:xlink="http://www.w3.org/1999/xlink">
  <defs/>
  <g id="Background">
    <rect style="fill: #ffffff; fill-opacity: 1; stroke-opacity: 1; stroke-width: 2.35099e-37; stroke: #ffffff" x="-20" y="-20" width="680" height="960" rx="0" ry="0"/>
  </g>
  <g id="Foreground">
    <rect style="fill: #ff0000; fill-opacity: 1; stroke-opacity: 1; stroke-width: 2; stroke: #000000" x="0" y="80" width="80" height="80" rx="0" ry="0"/>
    <rect style="fill: #ff3333; fill-opacity: 1; stroke-opacity: 1; stroke-width: 2; stroke: #000000" x="80" y="80" width="80" height="80" rx="0" ry="0"/>
    <rect style="fill: #ff6666; fill-opacity: 1; stroke-opacity: 1; stroke-width: 2; stroke: #000000" x="160" y="80" width="80" height="80" rx="0" ry="0"/>
    <rect style="fill: #ff9999; fill-opacity: 1; stroke-opacity: 1; stroke-width: 2; stroke: #000000" x="240" y="80" width="80" height="80" rx="0" ry="0"/>
    <rect style="fill: #0000ff; fill-opacity: 1; stroke-opacity: 1; stroke-width: 2; stroke: #000000" x="320" y="80" width="80" height="80" rx="0" ry="0"/>
    <rect style="fill: #8080ff; fill-opacity: 1; stroke-opacity: 1; stroke-width: 2; stroke: #000000" x="400" y="80" width="80" height="80" rx="0" ry="0"/>
    <rect style="fill: #e0e000; fill-opacity: 1; stroke-opacity: 1; stroke-width: 2; stroke: #000000" x="480" y="80" width="80" height="80" rx="0" ry="0"/>
    <rect style="fill: #00c000; fill-opacity: 1; stroke-opacity: 1; stroke-width: 2; stroke: #000000" x="560" y="80" width="80" height="80" rx="0" ry="0"/>
    <rect style="fill: #ffffff; fill-opacity: 1; stroke-opacity: 1; stroke-width: 2; stroke: #ffffff" x="40" y="100" width="240" height="20" rx="0" ry="0"/>
    <text font-size="12.7998" style="fill: #000000; fill-opacity: 1; stroke: none;text-anchor:middle;font-family:sans-serif;font-style:normal;font-weight:normal" x="160" y="116.95">
      <tspan x="160" y="116.95">32-bit</tspan>
    </text>
    <rect style="fill: #ffffff; fill-opacity: 1; stroke-opacity: 1; stroke-width: 2; stroke: #ffffff" x="360" y="100" width="80" height="20" rx="0" ry="0"/>
    <text font-size="12.7998" style="fill: #000000; fill-opacity: 1; stroke: none;text-anchor:middle;font-family:sans-serif;font-style:normal;font-weight:normal" x="400" y="116.95">
      <tspan x="400" y="116.95">16-bit</tspan>
    </text>
    <rect style="fill: #ffffff; fill-opacity: 1; stroke-opacity: 1; stroke-width: 2; stroke: #ffffff" x="500" y="100" width="40" height="20" rx="0" ry="0"/>
    <text font-size="12.7998" style="fill: #000000; fill-opacity: 1; stroke: none;text-anchor:middle;font-family:sans-serif;font-style:normal;font-weight:normal" x="520" y="116.95">
      <tspan x="520" y="116.95">8-bit</tspan>
    </text>
    <rect style="fill: #ffffff; fill-opacity: 1; stroke-opacity: 1; stroke-width: 2; stroke: #ffffff" x="580" y="100" width="40" height="20" rx="0" ry="0"/>
    <text font-size="12.7998" style="fill: #000000; fill-opacity: 1; stroke: none;text-anchor:middle;font-family:sans-serif;font-style:normal;font-weight:normal" x="600" y="116.95">
      <tspan x="600" y="116.95">8-bit</tspan>
    </text>
    <rect style="fill: #ff0000; fill-opacity: 1; stroke-opacity: 1; stroke-width: 2; stroke: #000000" x="240" y="320" width="80" height="80" rx="0" ry="0"/>
    <rect style="fill: #ff3333; fill-opacity: 1; stroke-opacity: 1; stroke-width: 2; stroke: #000000" x="160" y="320" width="80" height="80" rx="0" ry="0"/>
    <rect style="fill: #ff6666; fill-opacity: 1; stroke-opacity: 1; stroke-width: 2; stroke: #000000" x="80" y="320" width="80" height="80" rx="0" ry="0"/>
    <rect style="fill: #ff9999; fill-opacity: 1; stroke-opacity: 1; stroke-width: 2; stroke: #000000" x="0" y="320" width="80" height="80" rx="0" ry="0"/>
    <rect style="fill: #0000ff; fill-opacity: 1; stroke-opacity: 1; stroke-width: 2; stroke: #000000" x="400" y="320" width="80" height="80" rx="0" ry="0"/>
    <rect style="fill: #8080ff; fill-opacity: 1; stroke-opacity: 1; stroke-width: 2; stroke: #000000" x="320" y="320" width="80" height="80" rx="0" ry="0"/>
    <rect style="fill: #e0e000; fill-opacity: 1; stroke-opacity: 1; stroke-width: 2; stroke: #000000" x="480" y="320" width="80" height="80" rx="0" ry="0"/>
    <rect style="fill: #00c000; fill-opacity: 1; stroke-opacity: 1; stroke-width: 2; stroke: #000000" x="560" y="320" width="80" height="80" rx="0" ry="0"/>
    <rect style="fill: #ffffff; fill-opacity: 1; stroke-opacity: 1; stroke-width: 2; stroke: #ffffff" x="40" y="340" width="240" height="20" rx="0" ry="0"/>
    <text font-size="12.7998" style="fill: #000000; fill-opacity: 1; stroke: none;text-anchor:middle;font-family:sans-serif;font-style:normal;font-weight:normal" x="160" y="356.95">
      <tspan x="160" y="356.95">32-bit</tspan>
    </text>
    <rect style="fill: #ffffff; fill-opacity: 1; stroke-opacity: 1; stroke-width: 2; stroke: #ffffff" x="360" y="340" width="80" height="20" rx="0" ry="0"/>
    <text font-size="12.7998" style="fill: #000000; fill-opacity: 1; stroke: none;text-anchor:middle;font-family:sans-serif;font-style:normal;font-weight:normal" x="400" y="356.95">
      <tspan x="400" y="356.95">16-bit</tspan>
    </text>
    <rect style="fill: #ffffff; fill-opacity: 1; stroke-opacity: 1; stroke-width: 2; stroke: #ffffff" x="500" y="340" width="40" height="20" rx="0" ry="0"/>
    <text font-size="12.7998" style="fill: #000000; fill-opacity: 1; stroke: none;text-anchor:middle;font-family:sans-serif;font-style:normal;font-weight:normal" x="520" y="356.95">
      <tspan x="520" y="356.95">8-bit</tspan>
    </text>
    <rect style="fill: #ffffff; fill-opacity: 1; stroke-opacity: 1; stroke-width: 2; stroke: #ffffff" x="580" y="340" width="40" height="20" rx="0" ry="0"/>
    <text font-size="12.7998" style="fill: #000000; fill-opacity: 1; stroke: none;text-anchor:middle;font-family:sans-serif;font-style:normal;font-weight:normal" x="600" y="356.95">
      <tspan x="600" y="356.95">8-bit</tspan>
    </text>
    <line style="fill: none; stroke-opacity: 1; stroke-width: 2; stroke: #000000" x1="40" y1="160" x2="280" y2="320"/>
    <line style="fill: none; stroke-opacity: 1; stroke-width: 2; stroke: #000000" x1="120" y1="160" x2="200" y2="320"/>
    <line style="fill: none; stroke-opacity: 1; stroke-width: 2; stroke: #000000" x1="200" y1="160" x2="120" y2="320"/>
    <line style="fill: none; stroke-opacity: 1; stroke-width: 2; stroke: #000000" x1="280" y1="160" x2="40" y2="320"/>
    <line style="fill: none; stroke-opacity: 1; stroke-width: 2; stroke: #000000" x1="360" y1="160" x2="440" y2="320"/>
    <line style="fill: none; stroke-opacity: 1; stroke-width: 2; stroke: #000000" x1="440" y1="160" x2="360" y2="320"/>
    <line style="fill: none; stroke-opacity: 1; stroke-width: 2; stroke: #000000" x1="520" y1="160" x2="520" y2="320"/>
    <line style="fill: none; stroke-opacity: 1; stroke-width: 2; stroke: #000000" x1="600" y1="160" x2="600" y2="320"/>
    <path style="fill: #ffffff; fill-opacity: 1; stroke-opacity: 1; stroke-width: 2; stroke: #000000" fill-rule="evenodd" d="M 0 0 C 20,0 20,0 40,0 C 80,0 160,0 200,0 C 240,0 320,0 360,0 C 400,0 480,0 520,0 C 560,0 560,0 600,0 C 620,0 620,0 640,0 C 640,13.3333 640,26.6667 640,40 C 620,40 620,40 600,40 C 560,40 560,40 520,40 C 480,40 400,40 360,40 C 320,40 240,40 200,40 C 160,40 80,40 40,40 C 20,40 20,40 0,40 C 0,26.6667 0,13.3333 0,0z"/>
    <text font-size="12.7998" style="fill: #000000; fill-opacity: 1; stroke: none;text-anchor:middle;font-family:sans-serif;font-style:normal;font-weight:normal" x="320" y="16.425">
      <tspan x="320" y="16.425">Registers/Busses</tspan>
      <tspan x="320" y="32.425">Little/Big Endian</tspan>
    </text>
    <text font-size="12.7998" style="fill: #000000; fill-opacity: 1; stroke: none;text-anchor:middle;font-family:sans-serif;font-style:normal;font-weight:normal" x="320" y="244.238">
      <tspan x="320" y="244.238">Swap Endian</tspan>
    </text>
    <line style="fill: none; stroke-opacity: 1; stroke-width: 2; stroke: #000000" x1="40" y1="80" x2="40" y2="40"/>
    <line style="fill: none; stroke-opacity: 1; stroke-width: 2; stroke: #000000" x1="120" y1="40" x2="120" y2="80"/>
    <line style="fill: none; stroke-opacity: 1; stroke-width: 2; stroke: #000000" x1="200" y1="80" x2="200" y2="40"/>
    <line style="fill: none; stroke-opacity: 1; stroke-width: 2; stroke: #000000" x1="280" y1="40" x2="280" y2="80"/>
    <line style="fill: none; stroke-opacity: 1; stroke-width: 2; stroke: #000000" x1="360" y1="80" x2="360" y2="40"/>
    <line style="fill: none; stroke-opacity: 1; stroke-width: 2; stroke: #000000" x1="440" y1="40" x2="440" y2="80"/>
    <line style="fill: none; stroke-opacity: 1; stroke-width: 2; stroke: #000000" x1="520" y1="80" x2="520" y2="40"/>
    <line style="fill: none; stroke-opacity: 1; stroke-width: 2; stroke: #000000" x1="600" y1="40" x2="600" y2="80"/>
    <path style="fill: #ffffff; fill-opacity: 1; stroke-opacity: 1; stroke-width: 2; stroke: #000000" fill-rule="evenodd" d="M 0 440 C 20,440 20,440 40,440 C 80,440 160,440 200,440 C 240,440 320,440 360,440 C 400,440 480,440 520,440 C 560,440 560,440 600,440 C 620,440 620,440 640,440 C 640,453.333 640,466.667 640,480 C 620,480 620,480 600,480 C 560,480 560,480 520,480 C 480,480 400,480 360,480 C 320,480 240,480 200,480 C 160,480 80,480 40,480 C 20,480 20,480 0,480 C 0,466.667 0,453.333 0,440z"/>
    <text font-size="12.7998" style="fill: #000000; fill-opacity: 1; stroke: none;text-anchor:middle;font-family:sans-serif;font-style:normal;font-weight:normal" x="320" y="456.238">
      <tspan x="320" y="456.238">ALUs/Load/Store</tspan>
      <tspan x="320" y="472.238">Little Endian</tspan>
    </text>
    <line style="fill: none; stroke-opacity: 1; stroke-width: 2; stroke: #000000" x1="40" y1="440" x2="40" y2="400"/>
    <line style="fill: none; stroke-opacity: 1; stroke-width: 2; stroke: #000000" x1="120" y1="400" x2="120" y2="440"/>
    <line style="fill: none; stroke-opacity: 1; stroke-width: 2; stroke: #000000" x1="200" y1="440" x2="200" y2="400"/>
    <line style="fill: none; stroke-opacity: 1; stroke-width: 2; stroke: #000000" x1="280" y1="400" x2="280" y2="440"/>
    <line style="fill: none; stroke-opacity: 1; stroke-width: 2; stroke: #000000" x1="360" y1="440" x2="360" y2="400"/>
    <line style="fill: none; stroke-opacity: 1; stroke-width: 2; stroke: #000000" x1="440" y1="400" x2="440" y2="440"/>
    <line style="fill: none; stroke-opacity: 1; stroke-width: 2; stroke: #000000" x1="520" y1="440" x2="520" y2="400"/>
    <line style="fill: none; stroke-opacity: 1; stroke-width: 2; stroke: #000000" x1="600" y1="400" x2="600" y2="440"/>
    <path style="fill: #ffffff; fill-opacity: 1; stroke-opacity: 1; stroke-width: 2; stroke: #000000" fill-rule="evenodd" d="M 0 880 C 20,880 20,880 40,880 C 80,880 160,880 200,880 C 240,880 320,880 360,880 C 400,880 480,880 520,880 C 560,880 560,880 600,880 C 620,880 620,880 640,880 C 640,893.333 640,906.667 640,920 C 620,920 620,920 600,920 C 560,920 560,920 520,920 C 480,920 400,920 360,920 C 320,920 240,920 200,920 C 160,920 80,920 40,920 C 20,920 20,920 0,920 C 0,906.667 0,893.333 0,880z"/>
    <text font-size="12.7998" style="fill: #000000; fill-opacity: 1; stroke: none;text-anchor:middle;font-family:sans-serif;font-style:normal;font-weight:normal" x="320" y="896.425">
      <tspan x="320" y="896.425">Registers/Busses</tspan>
      <tspan x="320" y="912.425">Little/Big Endian</tspan>
    </text>
    <rect style="fill: #ff0000; fill-opacity: 1; stroke-opacity: 1; stroke-width: 2; stroke: #000000" x="240" y="520" width="80" height="80" rx="0" ry="0"/>
    <rect style="fill: #ff3333; fill-opacity: 1; stroke-opacity: 1; stroke-width: 2; stroke: #000000" x="160" y="520" width="80" height="80" rx="0" ry="0"/>
    <rect style="fill: #ff6666; fill-opacity: 1; stroke-opacity: 1; stroke-width: 2; stroke: #000000" x="80" y="520" width="80" height="80" rx="0" ry="0"/>
    <rect style="fill: #ff9999; fill-opacity: 1; stroke-opacity: 1; stroke-width: 2; stroke: #000000" x="0" y="520" width="80" height="80" rx="0" ry="0"/>
    <rect style="fill: #0000ff; fill-opacity: 1; stroke-opacity: 1; stroke-width: 2; stroke: #000000" x="400" y="520" width="80" height="80" rx="0" ry="0"/>
    <rect style="fill: #8080ff; fill-opacity: 1; stroke-opacity: 1; stroke-width: 2; stroke: #000000" x="320" y="520" width="80" height="80" rx="0" ry="0"/>
    <rect style="fill: #e0e000; fill-opacity: 1; stroke-opacity: 1; stroke-width: 2; stroke: #000000" x="480" y="520" width="80" height="80" rx="0" ry="0"/>
    <rect style="fill: #00c000; fill-opacity: 1; stroke-opacity: 1; stroke-width: 2; stroke: #000000" x="560" y="520" width="80" height="80" rx="0" ry="0"/>
    <rect style="fill: #ffffff; fill-opacity: 1; stroke-opacity: 1; stroke-width: 2; stroke: #ffffff" x="40" y="540" width="240" height="20" rx="0" ry="0"/>
    <text font-size="12.7998" style="fill: #000000; fill-opacity: 1; stroke: none;text-anchor:middle;font-family:sans-serif;font-style:normal;font-weight:normal" x="160" y="556.95">
      <tspan x="160" y="556.95">32-bit</tspan>
    </text>
    <rect style="fill: #ffffff; fill-opacity: 1; stroke-opacity: 1; stroke-width: 2; stroke: #ffffff" x="360" y="540" width="80" height="20" rx="0" ry="0"/>
    <text font-size="12.7998" style="fill: #000000; fill-opacity: 1; stroke: none;text-anchor:middle;font-family:sans-serif;font-style:normal;font-weight:normal" x="400" y="556.95">
      <tspan x="400" y="556.95">16-bit</tspan>
    </text>
    <rect style="fill: #ffffff; fill-opacity: 1; stroke-opacity: 1; stroke-width: 2; stroke: #ffffff" x="500" y="540" width="40" height="20" rx="0" ry="0"/>
    <text font-size="12.7998" style="fill: #000000; fill-opacity: 1; stroke: none;text-anchor:middle;font-family:sans-serif;font-style:normal;font-weight:normal" x="520" y="556.95">
      <tspan x="520" y="556.95">8-bit</tspan>
    </text>
    <rect style="fill: #ffffff; fill-opacity: 1; stroke-opacity: 1; stroke-width: 2; stroke: #ffffff" x="580" y="540" width="40" height="20" rx="0" ry="0"/>
    <text font-size="12.7998" style="fill: #000000; fill-opacity: 1; stroke: none;text-anchor:middle;font-family:sans-serif;font-style:normal;font-weight:normal" x="600" y="556.95">
      <tspan x="600" y="556.95">8-bit</tspan>
    </text>
    <rect style="fill: #ff0000; fill-opacity: 1; stroke-opacity: 1; stroke-width: 2; stroke: #000000" x="0" y="760" width="80" height="80" rx="0" ry="0"/>
    <rect style="fill: #ff3333; fill-opacity: 1; stroke-opacity: 1; stroke-width: 2; stroke: #000000" x="80" y="760" width="80" height="80" rx="0" ry="0"/>
    <rect style="fill: #ff6666; fill-opacity: 1; stroke-opacity: 1; stroke-width: 2; stroke: #000000" x="160" y="760" width="80" height="80" rx="0" ry="0"/>
    <rect style="fill: #ff9999; fill-opacity: 1; stroke-opacity: 1; stroke-width: 2; stroke: #000000" x="240" y="760" width="80" height="80" rx="0" ry="0"/>
    <rect style="fill: #0000ff; fill-opacity: 1; stroke-opacity: 1; stroke-width: 2; stroke: #000000" x="320" y="760" width="80" height="80" rx="0" ry="0"/>
    <rect style="fill: #8080ff; fill-opacity: 1; stroke-opacity: 1; stroke-width: 2; stroke: #000000" x="400" y="760" width="80" height="80" rx="0" ry="0"/>
    <rect style="fill: #e0e000; fill-opacity: 1; stroke-opacity: 1; stroke-width: 2; stroke: #000000" x="480" y="760" width="80" height="80" rx="0" ry="0"/>
    <rect style="fill: #00c000; fill-opacity: 1; stroke-opacity: 1; stroke-width: 2; stroke: #000000" x="560" y="760" width="80" height="80" rx="0" ry="0"/>
    <rect style="fill: #ffffff; fill-opacity: 1; stroke-opacity: 1; stroke-width: 2; stroke: #ffffff" x="40" y="780" width="240" height="20" rx="0" ry="0"/>
    <text font-size="12.7998" style="fill: #000000; fill-opacity: 1; stroke: none;text-anchor:middle;font-family:sans-serif;font-style:normal;font-weight:normal" x="160" y="796.95">
      <tspan x="160" y="796.95">32-bit</tspan>
    </text>
    <rect style="fill: #ffffff; fill-opacity: 1; stroke-opacity: 1; stroke-width: 2; stroke: #ffffff" x="360" y="780" width="80" height="20" rx="0" ry="0"/>
    <text font-size="12.7998" style="fill: #000000; fill-opacity: 1; stroke: none;text-anchor:middle;font-family:sans-serif;font-style:normal;font-weight:normal" x="400" y="796.95">
      <tspan x="400" y="796.95">16-bit</tspan>
    </text>
    <rect style="fill: #ffffff; fill-opacity: 1; stroke-opacity: 1; stroke-width: 2; stroke: #ffffff" x="500" y="780" width="40" height="20" rx="0" ry="0"/>
    <text font-size="12.7998" style="fill: #000000; fill-opacity: 1; stroke: none;text-anchor:middle;font-family:sans-serif;font-style:normal;font-weight:normal" x="520" y="796.95">
      <tspan x="520" y="796.95">8-bit</tspan>
    </text>
    <rect style="fill: #ffffff; fill-opacity: 1; stroke-opacity: 1; stroke-width: 2; stroke: #ffffff" x="580" y="780" width="40" height="20" rx="0" ry="0"/>
    <text font-size="12.7998" style="fill: #000000; fill-opacity: 1; stroke: none;text-anchor:middle;font-family:sans-serif;font-style:normal;font-weight:normal" x="600" y="796.95">
      <tspan x="600" y="796.95">8-bit</tspan>
    </text>
    <line style="fill: none; stroke-opacity: 1; stroke-width: 2; stroke: #000000" x1="280" y1="600" x2="40" y2="760"/>
    <line style="fill: none; stroke-opacity: 1; stroke-width: 2; stroke: #000000" x1="200" y1="600" x2="120" y2="760"/>
    <line style="fill: none; stroke-opacity: 1; stroke-width: 2; stroke: #000000" x1="120" y1="600" x2="200" y2="760"/>
    <line style="fill: none; stroke-opacity: 1; stroke-width: 2; stroke: #000000" x1="40" y1="600" x2="280" y2="760"/>
    <line style="fill: none; stroke-opacity: 1; stroke-width: 2; stroke: #000000" x1="440" y1="600" x2="360" y2="760"/>
    <line style="fill: none; stroke-opacity: 1; stroke-width: 2; stroke: #000000" x1="360" y1="600" x2="440" y2="760"/>
    <line style="fill: none; stroke-opacity: 1; stroke-width: 2; stroke: #000000" x1="520" y1="600" x2="520" y2="760"/>
    <line style="fill: none; stroke-opacity: 1; stroke-width: 2; stroke: #000000" x1="600" y1="600" x2="600" y2="760"/>
    <text font-size="12.7998" style="fill: #000000; fill-opacity: 1; stroke: none;text-anchor:middle;font-family:sans-serif;font-style:normal;font-weight:normal" x="320" y="684.425">
      <tspan x="320" y="684.425">Swap Endian</tspan>
    </text>
    <line style="fill: none; stroke-opacity: 1; stroke-width: 2; stroke: #000000" x1="40" y1="520" x2="40" y2="480"/>
    <line style="fill: none; stroke-opacity: 1; stroke-width: 2; stroke: #000000" x1="120" y1="480" x2="120" y2="520"/>
    <line style="fill: none; stroke-opacity: 1; stroke-width: 2; stroke: #000000" x1="200" y1="520" x2="200" y2="480"/>
    <line style="fill: none; stroke-opacity: 1; stroke-width: 2; stroke: #000000" x1="280" y1="480" x2="280" y2="520"/>
    <line style="fill: none; stroke-opacity: 1; stroke-width: 2; stroke: #000000" x1="360" y1="520" x2="360" y2="480"/>
    <line style="fill: none; stroke-opacity: 1; stroke-width: 2; stroke: #000000" x1="440" y1="480" x2="440" y2="520"/>
    <line style="fill: none; stroke-opacity: 1; stroke-width: 2; stroke: #000000" x1="520" y1="520" x2="520" y2="480"/>
    <line style="fill: none; stroke-opacity: 1; stroke-width: 2; stroke: #000000" x1="600" y1="480" x2="600" y2="520"/>
    <line style="fill: none; stroke-opacity: 1; stroke-width: 2; stroke: #000000" x1="40" y1="880" x2="40" y2="840"/>
    <line style="fill: none; stroke-opacity: 1; stroke-width: 2; stroke: #000000" x1="120" y1="840" x2="120" y2="880"/>
    <line style="fill: none; stroke-opacity: 1; stroke-width: 2; stroke: #000000" x1="200" y1="880" x2="200" y2="840"/>
    <line style="fill: none; stroke-opacity: 1; stroke-width: 2; stroke: #000000" x1="280" y1="840" x2="280" y2="880"/>
    <line style="fill: none; stroke-opacity: 1; stroke-width: 2; stroke: #000000" x1="360" y1="880" x2="360" y2="840"/>
    <line style="fill: none; stroke-opacity: 1; stroke-width: 2; stroke: #000000" x1="440" y1="840" x2="440" y2="880"/>
    <line style="fill: none; stroke-opacity: 1; stroke-width: 2; stroke: #000000" x1="520" y1="880" x2="520" y2="840"/>
    <line style="fill: none; stroke-opacity: 1; stroke-width: 2; stroke: #000000" x1="600" y1="840" x2="600" y2="880"/>
  </g>
</svg>
