<?xml version="1.0" encoding="utf-8" ?>
<svg baseProfile="full" height="1080" version="1.1" width="1080" xmlns="http://www.w3.org/2000/svg" xmlns:ev="http://www.w3.org/2001/xml-events" xmlns:xlink="http://www.w3.org/1999/xlink"><defs /><rect height="570" stroke="rgb(16%,100%,16%)" stroke-width="1.5" width="570" x="240" y="240" /><text fill="white" x="435" y="510">Libre-SOC ls180 QFP-128</text><text fill="white" x="435" y="525">In collaboration with LIP6.fr</text><text fill="white" x="435" y="540">Cell Libraries by Chips4Makers</text><line stroke="rgb(16%,100%,16%)" stroke-width="1.5" x1="240" x2="202.5" y1="750.0" y2="750.0" /><text fill="black" x="60" y="757.5">P_SDRAM_A_9</text><text fill="white" x="247.5" y="757.5">W1</text><line stroke="rgb(16%,100%,16%)" stroke-width="1.5" x1="240" x2="202.5" y1="735.0" y2="735.0" /><text fill="black" x="60" y="742.5">P_SDRAM_A_8</text><text fill="white" x="247.5" y="742.5">W2</text><line stroke="rgb(16%,100%,16%)" stroke-width="1.5" x1="240" x2="202.5" y1="720.0" y2="720.0" /><text fill="black" x="60" y="727.5">P_SDRAM_A_7</text><text fill="white" x="247.5" y="727.5">W3</text><line stroke="rgb(16%,100%,16%)" stroke-width="1.5" x1="240" x2="202.5" y1="705.0" y2="705.0" /><text fill="black" x="60" y="712.5">P_SDRAM_A_6</text><text fill="white" x="247.5" y="712.5">W4</text><line stroke="rgb(16%,100%,16%)" stroke-width="1.5" x1="240" x2="202.5" y1="690.0" y2="690.0" /><text fill="black" x="60" y="697.5">P_SDRAM_A_5</text><text fill="white" x="247.5" y="697.5">W5</text><line stroke="rgb(16%,100%,16%)" stroke-width="1.5" x1="240" x2="202.5" y1="675.0" y2="675.0" /><text fill="black" x="60" y="682.5">P_SDRAM_A_4</text><text fill="white" x="247.5" y="682.5">W6</text><line stroke="rgb(16%,100%,16%)" stroke-width="1.5" x1="240" x2="202.5" y1="660.0" y2="660.0" /><text fill="black" x="60" y="667.5">IOPOWER_0</text><text fill="white" x="247.5" y="667.5">W7</text><line stroke="rgb(16%,100%,16%)" stroke-width="1.5" x1="240" x2="202.5" y1="645.0" y2="645.0" /><text fill="black" x="60" y="652.5">IOGROUND_0</text><text fill="white" x="247.5" y="652.5">W8</text><line stroke="rgb(16%,100%,16%)" stroke-width="1.5" x1="240" x2="202.5" y1="630.0" y2="630.0" /><text fill="black" x="60" y="637.5">POWER_0</text><text fill="white" x="247.5" y="637.5">W9</text><line stroke="rgb(16%,100%,16%)" stroke-width="1.5" x1="240" x2="202.5" y1="615.0" y2="615.0" /><text fill="black" x="60" y="622.5">GROUND_0</text><text fill="white" x="247.5" y="622.5">W10</text><line stroke="rgb(16%,100%,16%)" stroke-width="1.5" x1="240" x2="202.5" y1="600.0" y2="600.0" /><text fill="black" x="60" y="607.5">P_I2C_SDA</text><text fill="white" x="247.5" y="607.5">W11</text><line stroke="rgb(16%,100%,16%)" stroke-width="1.5" x1="240" x2="202.5" y1="585.0" y2="585.0" /><text fill="black" x="60" y="592.5">P_I2C_SCL</text><text fill="white" x="247.5" y="592.5">W12</text><line stroke="rgb(16%,100%,16%)" stroke-width="1.5" x1="240" x2="202.5" y1="570.0" y2="570.0" /><text fill="black" x="60" y="577.5">P_SDRAM_DM_0</text><text fill="white" x="247.5" y="577.5">W13</text><line stroke="rgb(16%,100%,16%)" stroke-width="1.5" x1="240" x2="202.5" y1="555.0" y2="555.0" /><text fill="black" x="60" y="562.5">P_SDRAM_DQ_0</text><text fill="white" x="247.5" y="562.5">W14</text><line stroke="rgb(16%,100%,16%)" stroke-width="1.5" x1="240" x2="202.5" y1="540.0" y2="540.0" /><text fill="black" x="60" y="547.5">P_SDRAM_DQ_1</text><text fill="white" x="247.5" y="547.5">W15</text><line stroke="rgb(16%,100%,16%)" stroke-width="1.5" x1="240" x2="202.5" y1="525.0" y2="525.0" /><text fill="black" x="60" y="532.5">P_SDRAM_DQ_2</text><text fill="white" x="247.5" y="532.5">W16</text><line stroke="rgb(16%,100%,16%)" stroke-width="1.5" x1="240" x2="202.5" y1="510.0" y2="510.0" /><text fill="black" x="60" y="517.5">P_SDRAM_DQ_3</text><text fill="white" x="247.5" y="517.5">W17</text><line stroke="rgb(16%,100%,16%)" stroke-width="1.5" x1="240" x2="202.5" y1="495.0" y2="495.0" /><text fill="black" x="60" y="502.5">P_SDRAM_DQ_4</text><text fill="white" x="247.5" y="502.5">W18</text><line stroke="rgb(16%,100%,16%)" stroke-width="1.5" x1="240" x2="202.5" y1="480.0" y2="480.0" /><text fill="black" x="60" y="487.5">P_SDRAM_DQ_5</text><text fill="white" x="247.5" y="487.5">W19</text><line stroke="rgb(16%,100%,16%)" stroke-width="1.5" x1="240" x2="202.5" y1="465.0" y2="465.0" /><text fill="black" x="60" y="472.5">P_SDRAM_DQ_6</text><text fill="white" x="247.5" y="472.5">W20</text><line stroke="rgb(16%,100%,16%)" stroke-width="1.5" x1="240" x2="202.5" y1="450.0" y2="450.0" /><text fill="black" x="60" y="457.5">P_SDRAM_DQ_7</text><text fill="white" x="247.5" y="457.5">W21</text><line stroke="rgb(16%,100%,16%)" stroke-width="1.5" x1="240" x2="202.5" y1="435.0" y2="435.0" /><text fill="black" x="60" y="442.5">P_SDRAM_BA_0</text><text fill="white" x="247.5" y="442.5">W22</text><line stroke="rgb(16%,100%,16%)" stroke-width="1.5" x1="240" x2="202.5" y1="420.0" y2="420.0" /><text fill="black" x="60" y="427.5">P_SDRAM_BA_1</text><text fill="white" x="247.5" y="427.5">W23</text><line stroke="rgb(16%,100%,16%)" stroke-width="1.5" x1="240" x2="202.5" y1="405.0" y2="405.0" /><text fill="black" x="60" y="412.5">P_SDRAM_A_0</text><text fill="white" x="247.5" y="412.5">W24</text><line stroke="rgb(16%,100%,16%)" stroke-width="1.5" x1="240" x2="202.5" y1="390.0" y2="390.0" /><text fill="black" x="60" y="397.5">P_SDRAM_A_1</text><text fill="white" x="247.5" y="397.5">W25</text><line stroke="rgb(16%,100%,16%)" stroke-width="1.5" x1="240" x2="202.5" y1="375.0" y2="375.0" /><text fill="black" x="60" y="382.5">P_SDRAM_A_2</text><text fill="white" x="247.5" y="382.5">W26</text><line stroke="rgb(16%,100%,16%)" stroke-width="1.5" x1="240" x2="202.5" y1="360.0" y2="360.0" /><text fill="black" x="60" y="367.5">P_SDRAM_A_3</text><text fill="white" x="247.5" y="367.5">W27</text><line stroke="rgb(16%,100%,16%)" stroke-width="1.5" x1="240" x2="202.5" y1="345.0" y2="345.0" /><text fill="black" x="60" y="352.5">NC_0</text><text fill="white" x="247.5" y="352.5">W28</text><line stroke="rgb(16%,100%,16%)" stroke-width="1.5" x1="240" x2="202.5" y1="330.0" y2="330.0" /><text fill="black" x="60" y="337.5">GROUND_1</text><text fill="white" x="247.5" y="337.5">W29</text><line stroke="rgb(16%,100%,16%)" stroke-width="1.5" x1="240" x2="202.5" y1="315.0" y2="315.0" /><text fill="black" x="60" y="322.5">POWER_1</text><text fill="white" x="247.5" y="322.5">W30</text><line stroke="rgb(16%,100%,16%)" stroke-width="1.5" x1="240" x2="202.5" y1="300.0" y2="300.0" /><text fill="black" x="60" y="307.5">IOGROUND_1</text><text fill="white" x="247.5" y="307.5">W31</text><line stroke="rgb(16%,100%,16%)" stroke-width="1.5" x1="240" x2="202.5" y1="285.0" y2="285.0" /><text fill="black" x="60" y="292.5">IOPOWER_1</text><text fill="white" x="247.5" y="292.5">W32</text><line stroke="rgb(16%,100%,16%)" stroke-width="1.5" x1="810" x2="847.5" y1="750.0" y2="750.0" /><text fill="black" x="855" y="753.75">P_GPIO_0</text><text fill="white" x="780" y="753.75">E1</text><line stroke="rgb(16%,100%,16%)" stroke-width="1.5" x1="810" x2="847.5" y1="735.0" y2="735.0" /><text fill="black" x="855" y="738.75">P_GPIO_1</text><text fill="white" x="780" y="738.75">E2</text><line stroke="rgb(16%,100%,16%)" stroke-width="1.5" x1="810" x2="847.5" y1="720.0" y2="720.0" /><text fill="black" x="855" y="723.75">P_GPIO_2</text><text fill="white" x="780" y="723.75">E3</text><line stroke="rgb(16%,100%,16%)" stroke-width="1.5" x1="810" x2="847.5" y1="705.0" y2="705.0" /><text fill="black" x="855" y="708.75">P_GPIO_3</text><text fill="white" x="780" y="708.75">E4</text><line stroke="rgb(16%,100%,16%)" stroke-width="1.5" x1="810" x2="847.5" y1="690.0" y2="690.0" /><text fill="black" x="855" y="693.75">P_GPIO_4</text><text fill="white" x="780" y="693.75">E5</text><line stroke="rgb(16%,100%,16%)" stroke-width="1.5" x1="810" x2="847.5" y1="675.0" y2="675.0" /><text fill="black" x="855" y="678.75">P_GPIO_5</text><text fill="white" x="780" y="678.75">E6</text><line stroke="rgb(16%,100%,16%)" stroke-width="1.5" x1="810" x2="847.5" y1="660.0" y2="660.0" /><text fill="black" x="855" y="663.75">IOGROUND_4</text><text fill="white" x="780" y="663.75">E7</text><line stroke="rgb(16%,100%,16%)" stroke-width="1.5" x1="810" x2="847.5" y1="645.0" y2="645.0" /><text fill="black" x="855" y="648.75">IOPOWER_4</text><text fill="white" x="780" y="648.75">E8</text><line stroke="rgb(16%,100%,16%)" stroke-width="1.5" x1="810" x2="847.5" y1="630.0" y2="630.0" /><text fill="black" x="855" y="633.75">POWER_4</text><text fill="white" x="780" y="633.75">E9</text><line stroke="rgb(16%,100%,16%)" stroke-width="1.5" x1="810" x2="847.5" y1="615.0" y2="615.0" /><text fill="black" x="855" y="618.75">GROUND_4</text><text fill="white" x="780" y="618.75">E10</text><line stroke="rgb(16%,100%,16%)" stroke-width="1.5" x1="810" x2="847.5" y1="600.0" y2="600.0" /><text fill="black" x="855" y="603.75">P_GPIO_6</text><text fill="white" x="780" y="603.75">E11</text><line stroke="rgb(16%,100%,16%)" stroke-width="1.5" x1="810" x2="847.5" y1="585.0" y2="585.0" /><text fill="black" x="855" y="588.75">P_GPIO_7</text><text fill="white" x="780" y="588.75">E12</text><line stroke="rgb(16%,100%,16%)" stroke-width="1.5" x1="810" x2="847.5" y1="570.0" y2="570.0" /><text fill="black" x="855" y="573.75">P_GPIO_8</text><text fill="white" x="780" y="573.75">E13</text><line stroke="rgb(16%,100%,16%)" stroke-width="1.5" x1="810" x2="847.5" y1="555.0" y2="555.0" /><text fill="black" x="855" y="558.75">P_JTAG_TMS</text><text fill="white" x="780" y="558.75">E14</text><line stroke="rgb(16%,100%,16%)" stroke-width="1.5" x1="810" x2="847.5" y1="540.0" y2="540.0" /><text fill="black" x="855" y="543.75">P_JTAG_TDI</text><text fill="white" x="780" y="543.75">E15</text><line stroke="rgb(16%,100%,16%)" stroke-width="1.5" x1="810" x2="847.5" y1="525.0" y2="525.0" /><text fill="black" x="855" y="528.75">P_JTAG_TDO</text><text fill="white" x="780" y="528.75">E16</text><line stroke="rgb(16%,100%,16%)" stroke-width="1.5" x1="810" x2="847.5" y1="510.0" y2="510.0" /><text fill="black" x="855" y="513.75">P_JTAG_TCK</text><text fill="white" x="780" y="513.75">E17</text><line stroke="rgb(16%,100%,16%)" stroke-width="1.5" x1="810" x2="847.5" y1="495.0" y2="495.0" /><text fill="black" x="855" y="498.75">P_GPIO_9</text><text fill="white" x="780" y="498.75">E18</text><line stroke="rgb(16%,100%,16%)" stroke-width="1.5" x1="810" x2="847.5" y1="480.0" y2="480.0" /><text fill="black" x="855" y="483.75">P_GPIO_10</text><text fill="white" x="780" y="483.75">E19</text><line stroke="rgb(16%,100%,16%)" stroke-width="1.5" x1="810" x2="847.5" y1="465.0" y2="465.0" /><text fill="black" x="855" y="468.75">P_GPIO_11</text><text fill="white" x="780" y="468.75">E20</text><line stroke="rgb(16%,100%,16%)" stroke-width="1.5" x1="810" x2="847.5" y1="450.0" y2="450.0" /><text fill="black" x="855" y="453.75">P_GPIO_12</text><text fill="white" x="780" y="453.75">E21</text><line stroke="rgb(16%,100%,16%)" stroke-width="1.5" x1="810" x2="847.5" y1="435.0" y2="435.0" /><text fill="black" x="855" y="438.75">P_GPIO_13</text><text fill="white" x="780" y="438.75">E22</text><line stroke="rgb(16%,100%,16%)" stroke-width="1.5" x1="810" x2="847.5" y1="420.0" y2="420.0" /><text fill="black" x="855" y="423.75">GROUND_5</text><text fill="white" x="780" y="423.75">E23</text><line stroke="rgb(16%,100%,16%)" stroke-width="1.5" x1="810" x2="847.5" y1="405.0" y2="405.0" /><text fill="black" x="855" y="408.75">POWER_5</text><text fill="white" x="780" y="408.75">E24</text><line stroke="rgb(16%,100%,16%)" stroke-width="1.5" x1="810" x2="847.5" y1="390.0" y2="390.0" /><text fill="black" x="855" y="393.75">IOGROUND_5</text><text fill="white" x="780" y="393.75">E25</text><line stroke="rgb(16%,100%,16%)" stroke-width="1.5" x1="810" x2="847.5" y1="375.0" y2="375.0" /><text fill="black" x="855" y="378.75">IOPOWER_5</text><text fill="white" x="780" y="378.75">E26</text><line stroke="rgb(16%,100%,16%)" stroke-width="1.5" x1="810" x2="847.5" y1="360.0" y2="360.0" /><text fill="black" x="855" y="363.75">P_GPIO_14</text><text fill="white" x="780" y="363.75">E27</text><line stroke="rgb(16%,100%,16%)" stroke-width="1.5" x1="810" x2="847.5" y1="345.0" y2="345.0" /><text fill="black" x="855" y="348.75">P_GPIO_15</text><text fill="white" x="780" y="348.75">E28</text><line stroke="rgb(16%,100%,16%)" stroke-width="1.5" x1="810" x2="847.5" y1="330.0" y2="330.0" /><text fill="black" x="855" y="333.75">P_EINT_0</text><text fill="white" x="780" y="333.75">E29</text><line stroke="rgb(16%,100%,16%)" stroke-width="1.5" x1="810" x2="847.5" y1="315.0" y2="315.0" /><text fill="black" x="855" y="318.75">P_EINT_1</text><text fill="white" x="780" y="318.75">E30</text><line stroke="rgb(16%,100%,16%)" stroke-width="1.5" x1="810" x2="847.5" y1="300.0" y2="300.0" /><text fill="black" x="855" y="303.75">P_EINT_2</text><text fill="white" x="780" y="303.75">E31</text><line stroke="rgb(16%,100%,16%)" stroke-width="1.5" x1="810" x2="847.5" y1="285.0" y2="285.0" /><text fill="black" x="855" y="288.75">P_SYS_PLL_VCO_O</text><text fill="white" x="780" y="288.75">E32</text><line stroke="rgb(16%,100%,16%)" stroke-width="1.5" x1="292.5" x2="292.5" y1="240" y2="202.5" /><text fill="black" transform="rotate(-90,292.5,195.0)" x="292.5" y="195.0">NC_1</text><text fill="white" transform="rotate(-90,296.25,266.25)" x="296.25" y="266.25">N1</text><line stroke="rgb(16%,100%,16%)" stroke-width="1.5" x1="307.5" x2="307.5" y1="240" y2="202.5" /><text fill="black" transform="rotate(-90,307.5,195.0)" x="307.5" y="195.0">NC_2</text><text fill="white" transform="rotate(-90,311.25,266.25)" x="311.25" y="266.25">N2</text><line stroke="rgb(16%,100%,16%)" stroke-width="1.5" x1="322.5" x2="322.5" y1="240" y2="202.5" /><text fill="black" transform="rotate(-90,322.5,195.0)" x="322.5" y="195.0">NC_3</text><text fill="white" transform="rotate(-90,326.25,266.25)" x="326.25" y="266.25">N3</text><line stroke="rgb(16%,100%,16%)" stroke-width="1.5" x1="337.5" x2="337.5" y1="240" y2="202.5" /><text fill="black" transform="rotate(-90,337.5,195.0)" x="337.5" y="195.0">NC_4</text><text fill="white" transform="rotate(-90,341.25,266.25)" x="341.25" y="266.25">N4</text><line stroke="rgb(16%,100%,16%)" stroke-width="1.5" x1="352.5" x2="352.5" y1="240" y2="202.5" /><text fill="black" transform="rotate(-90,352.5,195.0)" x="352.5" y="195.0">NC_5</text><text fill="white" transform="rotate(-90,356.25,266.25)" x="356.25" y="266.25">N5</text><line stroke="rgb(16%,100%,16%)" stroke-width="1.5" x1="367.5" x2="367.5" y1="240" y2="202.5" /><text fill="black" transform="rotate(-90,367.5,195.0)" x="367.5" y="195.0">NC_6</text><text fill="white" transform="rotate(-90,371.25,266.25)" x="371.25" y="266.25">N6</text><line stroke="rgb(16%,100%,16%)" stroke-width="1.5" x1="382.5" x2="382.5" y1="240" y2="202.5" /><text fill="black" transform="rotate(-90,382.5,195.0)" x="382.5" y="195.0">IOGROUND_6</text><text fill="white" transform="rotate(-90,386.25,266.25)" x="386.25" y="266.25">N7</text><line stroke="rgb(16%,100%,16%)" stroke-width="1.5" x1="397.5" x2="397.5" y1="240" y2="202.5" /><text fill="black" transform="rotate(-90,397.5,195.0)" x="397.5" y="195.0">IOPOWER_6</text><text fill="white" transform="rotate(-90,401.25,266.25)" x="401.25" y="266.25">N8</text><line stroke="rgb(16%,100%,16%)" stroke-width="1.5" x1="412.5" x2="412.5" y1="240" y2="202.5" /><text fill="black" transform="rotate(-90,412.5,195.0)" x="412.5" y="195.0">POWER_6</text><text fill="white" transform="rotate(-90,416.25,266.25)" x="416.25" y="266.25">N9</text><line stroke="rgb(16%,100%,16%)" stroke-width="1.5" x1="427.5" x2="427.5" y1="240" y2="202.5" /><text fill="black" transform="rotate(-90,427.5,195.0)" x="427.5" y="195.0">GROUND_6</text><text fill="white" transform="rotate(-90,431.25,266.25)" x="431.25" y="266.25">N10</text><line stroke="rgb(16%,100%,16%)" stroke-width="1.5" x1="442.5" x2="442.5" y1="240" y2="202.5" /><text fill="black" transform="rotate(-90,442.5,195.0)" x="442.5" y="195.0">NC_7</text><text fill="white" transform="rotate(-90,446.25,266.25)" x="446.25" y="266.25">N11</text><line stroke="rgb(16%,100%,16%)" stroke-width="1.5" x1="457.5" x2="457.5" y1="240" y2="202.5" /><text fill="black" transform="rotate(-90,457.5,195.0)" x="457.5" y="195.0">NC_8</text><text fill="white" transform="rotate(-90,461.25,266.25)" x="461.25" y="266.25">N12</text><line stroke="rgb(16%,100%,16%)" stroke-width="1.5" x1="472.5" x2="472.5" y1="240" y2="202.5" /><text fill="black" transform="rotate(-90,472.5,195.0)" x="472.5" y="195.0">NC_9</text><text fill="white" transform="rotate(-90,476.25,266.25)" x="476.25" y="266.25">N13</text><line stroke="rgb(16%,100%,16%)" stroke-width="1.5" x1="487.5" x2="487.5" y1="240" y2="202.5" /><text fill="black" transform="rotate(-90,487.5,195.0)" x="487.5" y="195.0">NC_10</text><text fill="white" transform="rotate(-90,491.25,266.25)" x="491.25" y="266.25">N14</text><line stroke="rgb(16%,100%,16%)" stroke-width="1.5" x1="502.5" x2="502.5" y1="240" y2="202.5" /><text fill="black" transform="rotate(-90,502.5,195.0)" x="502.5" y="195.0">NC_11</text><text fill="white" transform="rotate(-90,506.25,266.25)" x="506.25" y="266.25">N15</text><line stroke="rgb(16%,100%,16%)" stroke-width="1.5" x1="517.5" x2="517.5" y1="240" y2="202.5" /><text fill="black" transform="rotate(-90,517.5,195.0)" x="517.5" y="195.0">NC_12</text><text fill="white" transform="rotate(-90,521.25,266.25)" x="521.25" y="266.25">N16</text><line stroke="rgb(16%,100%,16%)" stroke-width="1.5" x1="532.5" x2="532.5" y1="240" y2="202.5" /><text fill="black" transform="rotate(-90,532.5,195.0)" x="532.5" y="195.0">NC_13</text><text fill="white" transform="rotate(-90,536.25,266.25)" x="536.25" y="266.25">N17</text><line stroke="rgb(16%,100%,16%)" stroke-width="1.5" x1="547.5" x2="547.5" y1="240" y2="202.5" /><text fill="black" transform="rotate(-90,547.5,195.0)" x="547.5" y="195.0">NC_14</text><text fill="white" transform="rotate(-90,551.25,266.25)" x="551.25" y="266.25">N18</text><line stroke="rgb(16%,100%,16%)" stroke-width="1.5" x1="562.5" x2="562.5" y1="240" y2="202.5" /><text fill="black" transform="rotate(-90,562.5,195.0)" x="562.5" y="195.0">NC_15</text><text fill="white" transform="rotate(-90,566.25,266.25)" x="566.25" y="266.25">N19</text><line stroke="rgb(16%,100%,16%)" stroke-width="1.5" x1="577.5" x2="577.5" y1="240" y2="202.5" /><text fill="black" transform="rotate(-90,577.5,195.0)" x="577.5" y="195.0">NC_16</text><text fill="white" transform="rotate(-90,581.25,266.25)" x="581.25" y="266.25">N20</text><line stroke="rgb(16%,100%,16%)" stroke-width="1.5" x1="592.5" x2="592.5" y1="240" y2="202.5" /><text fill="black" transform="rotate(-90,592.5,195.0)" x="592.5" y="195.0">NC_17</text><text fill="white" transform="rotate(-90,596.25,266.25)" x="596.25" y="266.25">N21</text><line stroke="rgb(16%,100%,16%)" stroke-width="1.5" x1="607.5" x2="607.5" y1="240" y2="202.5" /><text fill="black" transform="rotate(-90,607.5,195.0)" x="607.5" y="195.0">NC_18</text><text fill="white" transform="rotate(-90,611.25,266.25)" x="611.25" y="266.25">N22</text><line stroke="rgb(16%,100%,16%)" stroke-width="1.5" x1="622.5" x2="622.5" y1="240" y2="202.5" /><text fill="black" transform="rotate(-90,622.5,195.0)" x="622.5" y="195.0">GROUND_7</text><text fill="white" transform="rotate(-90,626.25,266.25)" x="626.25" y="266.25">N23</text><line stroke="rgb(16%,100%,16%)" stroke-width="1.5" x1="637.5" x2="637.5" y1="240" y2="202.5" /><text fill="black" transform="rotate(-90,637.5,195.0)" x="637.5" y="195.0">POWER_7</text><text fill="white" transform="rotate(-90,641.25,266.25)" x="641.25" y="266.25">N24</text><line stroke="rgb(16%,100%,16%)" stroke-width="1.5" x1="652.5" x2="652.5" y1="240" y2="202.5" /><text fill="black" transform="rotate(-90,652.5,195.0)" x="652.5" y="195.0">IOGROUND_7</text><text fill="white" transform="rotate(-90,656.25,266.25)" x="656.25" y="266.25">N25</text><line stroke="rgb(16%,100%,16%)" stroke-width="1.5" x1="667.5" x2="667.5" y1="240" y2="202.5" /><text fill="black" transform="rotate(-90,667.5,195.0)" x="667.5" y="195.0">IOPOWER_7</text><text fill="white" transform="rotate(-90,671.25,266.25)" x="671.25" y="266.25">N26</text><line stroke="rgb(16%,100%,16%)" stroke-width="1.5" x1="682.5" x2="682.5" y1="240" y2="202.5" /><text fill="black" transform="rotate(-90,682.5,195.0)" x="682.5" y="195.0">NC_19</text><text fill="white" transform="rotate(-90,686.25,266.25)" x="686.25" y="266.25">N27</text><line stroke="rgb(16%,100%,16%)" stroke-width="1.5" x1="697.5" x2="697.5" y1="240" y2="202.5" /><text fill="black" transform="rotate(-90,697.5,195.0)" x="697.5" y="195.0">SYS_RST</text><text fill="white" transform="rotate(-90,701.25,266.25)" x="701.25" y="266.25">N28</text><line stroke="rgb(16%,100%,16%)" stroke-width="1.5" x1="712.5" x2="712.5" y1="240" y2="202.5" /><text fill="black" transform="rotate(-90,712.5,195.0)" x="712.5" y="195.0">P_SYS_PLLCLK</text><text fill="white" transform="rotate(-90,716.25,266.25)" x="716.25" y="266.25">N29</text><line stroke="rgb(16%,100%,16%)" stroke-width="1.5" x1="727.5" x2="727.5" y1="240" y2="202.5" /><text fill="black" transform="rotate(-90,727.5,195.0)" x="727.5" y="195.0">P_SYS_CLKSEL_0</text><text fill="white" transform="rotate(-90,731.25,266.25)" x="731.25" y="266.25">N30</text><line stroke="rgb(16%,100%,16%)" stroke-width="1.5" x1="742.5" x2="742.5" y1="240" y2="202.5" /><text fill="black" transform="rotate(-90,742.5,195.0)" x="742.5" y="195.0">P_SYS_CLKSEL_1</text><text fill="white" transform="rotate(-90,746.25,266.25)" x="746.25" y="266.25">N31</text><line stroke="rgb(16%,100%,16%)" stroke-width="1.5" x1="757.5" x2="757.5" y1="240" y2="202.5" /><text fill="black" transform="rotate(-90,757.5,195.0)" x="757.5" y="195.0">P_SYS_PLL_TESTOUT_O</text><text fill="white" transform="rotate(-90,761.25,266.25)" x="761.25" y="266.25">N32</text><line stroke="rgb(16%,100%,16%)" stroke-width="1.5" x1="292.5" x2="292.5" y1="810" y2="847.5" /><text fill="black" transform="rotate(90,288.75,855.0)" x="288.75" y="855.0">P_SDRAM_A_10</text><text fill="white" transform="rotate(90,288.75,783.75)" x="288.75" y="783.75">S1</text><line stroke="rgb(16%,100%,16%)" stroke-width="1.5" x1="307.5" x2="307.5" y1="810" y2="847.5" /><text fill="black" transform="rotate(90,303.75,855.0)" x="303.75" y="855.0">P_SDRAM_A_11</text><text fill="white" transform="rotate(90,303.75,783.75)" x="303.75" y="783.75">S2</text><line stroke="rgb(16%,100%,16%)" stroke-width="1.5" x1="322.5" x2="322.5" y1="810" y2="847.5" /><text fill="black" transform="rotate(90,318.75,855.0)" x="318.75" y="855.0">P_SDRAM_A_12</text><text fill="white" transform="rotate(90,318.75,783.75)" x="318.75" y="783.75">S3</text><line stroke="rgb(16%,100%,16%)" stroke-width="1.5" x1="337.5" x2="337.5" y1="810" y2="847.5" /><text fill="black" transform="rotate(90,333.75,855.0)" x="333.75" y="855.0">P_SDRAM_DM_1</text><text fill="white" transform="rotate(90,333.75,783.75)" x="333.75" y="783.75">S4</text><line stroke="rgb(16%,100%,16%)" stroke-width="1.5" x1="352.5" x2="352.5" y1="810" y2="847.5" /><text fill="black" transform="rotate(90,348.75,855.0)" x="348.75" y="855.0">IOPOWER_2</text><text fill="white" transform="rotate(90,348.75,783.75)" x="348.75" y="783.75">S5</text><line stroke="rgb(16%,100%,16%)" stroke-width="1.5" x1="367.5" x2="367.5" y1="810" y2="847.5" /><text fill="black" transform="rotate(90,363.75,855.0)" x="363.75" y="855.0">IOGROUND_2</text><text fill="white" transform="rotate(90,363.75,783.75)" x="363.75" y="783.75">S6</text><line stroke="rgb(16%,100%,16%)" stroke-width="1.5" x1="382.5" x2="382.5" y1="810" y2="847.5" /><text fill="black" transform="rotate(90,378.75,855.0)" x="378.75" y="855.0">POWER_2</text><text fill="white" transform="rotate(90,378.75,783.75)" x="378.75" y="783.75">S7</text><line stroke="rgb(16%,100%,16%)" stroke-width="1.5" x1="397.5" x2="397.5" y1="810" y2="847.5" /><text fill="black" transform="rotate(90,393.75,855.0)" x="393.75" y="855.0">GROUND_2</text><text fill="white" transform="rotate(90,393.75,783.75)" x="393.75" y="783.75">S8</text><line stroke="rgb(16%,100%,16%)" stroke-width="1.5" x1="412.5" x2="412.5" y1="810" y2="847.5" /><text fill="black" transform="rotate(90,408.75,855.0)" x="408.75" y="855.0">P_SDRAM_DQ_8</text><text fill="white" transform="rotate(90,408.75,783.75)" x="408.75" y="783.75">S9</text><line stroke="rgb(16%,100%,16%)" stroke-width="1.5" x1="427.5" x2="427.5" y1="810" y2="847.5" /><text fill="black" transform="rotate(90,423.75,855.0)" x="423.75" y="855.0">P_SDRAM_DQ_9</text><text fill="white" transform="rotate(90,423.75,783.75)" x="423.75" y="783.75">S10</text><line stroke="rgb(16%,100%,16%)" stroke-width="1.5" x1="442.5" x2="442.5" y1="810" y2="847.5" /><text fill="black" transform="rotate(90,438.75,855.0)" x="438.75" y="855.0">P_SDRAM_DQ_10</text><text fill="white" transform="rotate(90,438.75,783.75)" x="438.75" y="783.75">S11</text><line stroke="rgb(16%,100%,16%)" stroke-width="1.5" x1="457.5" x2="457.5" y1="810" y2="847.5" /><text fill="black" transform="rotate(90,453.75,855.0)" x="453.75" y="855.0">P_SDRAM_DQ_11</text><text fill="white" transform="rotate(90,453.75,783.75)" x="453.75" y="783.75">S12</text><line stroke="rgb(16%,100%,16%)" stroke-width="1.5" x1="472.5" x2="472.5" y1="810" y2="847.5" /><text fill="black" transform="rotate(90,468.75,855.0)" x="468.75" y="855.0">P_SDRAM_DQ_12</text><text fill="white" transform="rotate(90,468.75,783.75)" x="468.75" y="783.75">S13</text><line stroke="rgb(16%,100%,16%)" stroke-width="1.5" x1="487.5" x2="487.5" y1="810" y2="847.5" /><text fill="black" transform="rotate(90,483.75,855.0)" x="483.75" y="855.0">P_SDRAM_DQ_13</text><text fill="white" transform="rotate(90,483.75,783.75)" x="483.75" y="783.75">S14</text><line stroke="rgb(16%,100%,16%)" stroke-width="1.5" x1="502.5" x2="502.5" y1="810" y2="847.5" /><text fill="black" transform="rotate(90,498.75,855.0)" x="498.75" y="855.0">P_SDRAM_DQ_14</text><text fill="white" transform="rotate(90,498.75,783.75)" x="498.75" y="783.75">S15</text><line stroke="rgb(16%,100%,16%)" stroke-width="1.5" x1="517.5" x2="517.5" y1="810" y2="847.5" /><text fill="black" transform="rotate(90,513.75,855.0)" x="513.75" y="855.0">P_SDRAM_DQ_15</text><text fill="white" transform="rotate(90,513.75,783.75)" x="513.75" y="783.75">S16</text><line stroke="rgb(16%,100%,16%)" stroke-width="1.5" x1="532.5" x2="532.5" y1="810" y2="847.5" /><text fill="black" transform="rotate(90,528.75,855.0)" x="528.75" y="855.0">P_SDRAM_CLOCK</text><text fill="white" transform="rotate(90,528.75,783.75)" x="528.75" y="783.75">S17</text><line stroke="rgb(16%,100%,16%)" stroke-width="1.5" x1="547.5" x2="547.5" y1="810" y2="847.5" /><text fill="black" transform="rotate(90,543.75,855.0)" x="543.75" y="855.0">P_SDRAM_CKE</text><text fill="white" transform="rotate(90,543.75,783.75)" x="543.75" y="783.75">S18</text><line stroke="rgb(16%,100%,16%)" stroke-width="1.5" x1="562.5" x2="562.5" y1="810" y2="847.5" /><text fill="black" transform="rotate(90,558.75,855.0)" x="558.75" y="855.0">P_SDRAM_RAS_N</text><text fill="white" transform="rotate(90,558.75,783.75)" x="558.75" y="783.75">S19</text><line stroke="rgb(16%,100%,16%)" stroke-width="1.5" x1="577.5" x2="577.5" y1="810" y2="847.5" /><text fill="black" transform="rotate(90,573.75,855.0)" x="573.75" y="855.0">P_SDRAM_CAS_N</text><text fill="white" transform="rotate(90,573.75,783.75)" x="573.75" y="783.75">S20</text><line stroke="rgb(16%,100%,16%)" stroke-width="1.5" x1="592.5" x2="592.5" y1="810" y2="847.5" /><text fill="black" transform="rotate(90,588.75,855.0)" x="588.75" y="855.0">P_SDRAM_WE_N</text><text fill="white" transform="rotate(90,588.75,783.75)" x="588.75" y="783.75">S21</text><line stroke="rgb(16%,100%,16%)" stroke-width="1.5" x1="607.5" x2="607.5" y1="810" y2="847.5" /><text fill="black" transform="rotate(90,603.75,855.0)" x="603.75" y="855.0">P_SDRAM_CS_N</text><text fill="white" transform="rotate(90,603.75,783.75)" x="603.75" y="783.75">S22</text><line stroke="rgb(16%,100%,16%)" stroke-width="1.5" x1="622.5" x2="622.5" y1="810" y2="847.5" /><text fill="black" transform="rotate(90,618.75,855.0)" x="618.75" y="855.0">GROUND_3</text><text fill="white" transform="rotate(90,618.75,783.75)" x="618.75" y="783.75">S23</text><line stroke="rgb(16%,100%,16%)" stroke-width="1.5" x1="637.5" x2="637.5" y1="810" y2="847.5" /><text fill="black" transform="rotate(90,633.75,855.0)" x="633.75" y="855.0">POWER_3</text><text fill="white" transform="rotate(90,633.75,783.75)" x="633.75" y="783.75">S24</text><line stroke="rgb(16%,100%,16%)" stroke-width="1.5" x1="652.5" x2="652.5" y1="810" y2="847.5" /><text fill="black" transform="rotate(90,648.75,855.0)" x="648.75" y="855.0">IOGROUND_3</text><text fill="white" transform="rotate(90,648.75,783.75)" x="648.75" y="783.75">S25</text><line stroke="rgb(16%,100%,16%)" stroke-width="1.5" x1="667.5" x2="667.5" y1="810" y2="847.5" /><text fill="black" transform="rotate(90,663.75,855.0)" x="663.75" y="855.0">IOPOWER_3</text><text fill="white" transform="rotate(90,663.75,783.75)" x="663.75" y="783.75">S26</text><line stroke="rgb(16%,100%,16%)" stroke-width="1.5" x1="682.5" x2="682.5" y1="810" y2="847.5" /><text fill="black" transform="rotate(90,678.75,855.0)" x="678.75" y="855.0">P_UART_TX</text><text fill="white" transform="rotate(90,678.75,783.75)" x="678.75" y="783.75">S27</text><line stroke="rgb(16%,100%,16%)" stroke-width="1.5" x1="697.5" x2="697.5" y1="810" y2="847.5" /><text fill="black" transform="rotate(90,693.75,855.0)" x="693.75" y="855.0">P_UART_RX</text><text fill="white" transform="rotate(90,693.75,783.75)" x="693.75" y="783.75">S28</text><line stroke="rgb(16%,100%,16%)" stroke-width="1.5" x1="712.5" x2="712.5" y1="810" y2="847.5" /><text fill="black" transform="rotate(90,708.75,855.0)" x="708.75" y="855.0">P_SPIMASTER_CLK</text><text fill="white" transform="rotate(90,708.75,783.75)" x="708.75" y="783.75">S29</text><line stroke="rgb(16%,100%,16%)" stroke-width="1.5" x1="727.5" x2="727.5" y1="810" y2="847.5" /><text fill="black" transform="rotate(90,723.75,855.0)" x="723.75" y="855.0">P_SPIMASTER_CS_N</text><text fill="white" transform="rotate(90,723.75,783.75)" x="723.75" y="783.75">S30</text><line stroke="rgb(16%,100%,16%)" stroke-width="1.5" x1="742.5" x2="742.5" y1="810" y2="847.5" /><text fill="black" transform="rotate(90,738.75,855.0)" x="738.75" y="855.0">P_SPIMASTER_MOSI</text><text fill="white" transform="rotate(90,738.75,783.75)" x="738.75" y="783.75">S31</text><line stroke="rgb(16%,100%,16%)" stroke-width="1.5" x1="757.5" x2="757.5" y1="810" y2="847.5" /><text fill="black" transform="rotate(90,753.75,855.0)" x="753.75" y="855.0">P_SPIMASTER_MISO</text><text fill="white" transform="rotate(90,753.75,783.75)" x="753.75" y="783.75">S32</text></svg>